<?xml version="1.0" encoding="utf-8"?>
<!-- Generator: Adobe Illustrator 19.0.0, SVG Export Plug-In . SVG Version: 6.00 Build 0)  -->
<svg version="1.1" id="Layer_1" xmlns="http://www.w3.org/2000/svg" xmlns:xlink="http://www.w3.org/1999/xlink" x="0px" y="0px"
	 viewBox="-272 381 66.8 32" style="enable-background:new -272 381 66.8 32;" xml:space="preserve">
<style type="text/css">
	.st0{fill:#FFFFFF;}
	.st1{fill:url(#XMLID_2_);}
	.st2{fill:url(#XMLID_20_);}
	.st3{fill:url(#XMLID_21_);}
	.st4{fill:url(#XMLID_22_);}
	.st5{fill:url(#XMLID_23_);}
	.st6{fill:url(#XMLID_24_);}
	.st7{fill:url(#XMLID_25_);}
	.st8{fill:url(#XMLID_26_);}
	.st9{fill:none;stroke:#FFFFFF;stroke-width:0.8501;stroke-miterlimit:10;}
	.st10{fill:#EFB90F;}
</style>
<g id="XMLID_5_">
	<circle id="XMLID_15_" class="st0" cx="-255.5" cy="397.1" r="15.9"/>
	<g id="XMLID_6_">
		
			<linearGradient id="XMLID_2_" gradientUnits="userSpaceOnUse" x1="-254.1219" y1="403.7281" x2="-247.8665" y2="409.9836" gradientTransform="matrix(1 0 0 -1 0 796)">
			<stop  offset="0" style="stop-color:#F79421"/>
			<stop  offset="1" style="stop-color:#F6AC1D"/>
		</linearGradient>
		<path id="XMLID_14_" class="st1" d="M-245.5,386.2c0.3-0.3,0.1-0.8-0.3-0.8h-2.6c-0.8,0-1.7,0.3-2.3,0.9l-4.8,4.8l2.5,2.5
			L-245.5,386.2z"/>
		
			<linearGradient id="XMLID_20_" gradientUnits="userSpaceOnUse" x1="-259.6427" y1="406.4665" x2="-255.0933" y2="402.0796" gradientTransform="matrix(1 0 0 -1 0 796)">
			<stop  offset="0" style="stop-color:#F79421"/>
			<stop  offset="1" style="stop-color:#F6AC1D"/>
		</linearGradient>
		<path id="XMLID_13_" class="st2" d="M-258,393.7l1.6,1.5c0.5,0.5,1.4,0.5,1.9,0l1.3-1.3l0.3-0.3l-2.5-2.5l-1.6-1.6
			c-0.6-0.6-1.4-0.9-2.2-0.9h-3.8L-258,393.7L-258,393.7z"/>
		
			<linearGradient id="XMLID_21_" gradientUnits="userSpaceOnUse" x1="-256.6075" y1="394.1357" x2="-261.6444" y2="389.505" gradientTransform="matrix(1 0 0 -1 0 796)">
			<stop  offset="0" style="stop-color:#F79421"/>
			<stop  offset="1" style="stop-color:#F6AC1D"/>
		</linearGradient>
		<path id="XMLID_12_" class="st3" d="M-265.5,408c-0.3,0.3-0.1,0.8,0.3,0.8h2.7c0.8,0,1.6-0.3,2.2-0.9l4.8-4.8l-2.5-2.6L-265.5,408
			z"/>
		
			<linearGradient id="XMLID_22_" gradientUnits="userSpaceOnUse" x1="-251.2228" y1="391.0958" x2="-255.7722" y2="395.9702" gradientTransform="matrix(1 0 0 -1 0 796)">
			<stop  offset="0" style="stop-color:#F79421"/>
			<stop  offset="1" style="stop-color:#F6AC1D"/>
		</linearGradient>
		<path id="XMLID_11_" class="st4" d="M-254.5,399c-0.5-0.5-1.4-0.5-1.9,0l-1.3,1.3l-0.3,0.2l0,0l2.5,2.5l1.6,1.6
			c0.6,0.6,1.4,0.9,2.3,0.9h3.6l-5-5l0,0L-254.5,399z"/>
		
			<linearGradient id="XMLID_23_" gradientUnits="userSpaceOnUse" x1="-260.9678" y1="399.3683" x2="-266.9795" y2="405.5425" gradientTransform="matrix(1 0 0 -1 0 796)">
			<stop  offset="0" style="stop-color:#F79421"/>
			<stop  offset="1" style="stop-color:#F6AC1D"/>
		</linearGradient>
		<path id="XMLID_10_" class="st5" d="M-261.4,397.1l-1.6,1.6l4.1-4.1l-7.5-7.5c-0.3-0.3-0.8-0.1-0.8,0.3v2.6c0,0.8,0.3,1.6,0.9,2.2
			L-261.4,397.1z"/>
		
			<linearGradient id="XMLID_24_" gradientUnits="userSpaceOnUse" x1="-263.0331" y1="394.5754" x2="-259.3773" y2="398.4749" gradientTransform="matrix(1 0 0 -1 0 796)">
			<stop  offset="0" style="stop-color:#F79421"/>
			<stop  offset="1" style="stop-color:#F6AC1D"/>
		</linearGradient>
		<path id="XMLID_9_" class="st6" d="M-263.9,400.9v3.7l5-5l0,0l1.6-1.6c0.5-0.5,0.5-1.4,0-1.9l-1.6-1.5l-4.1,4.1
			C-263.6,399.3-263.9,400.1-263.9,400.9z"/>
		
			<linearGradient id="XMLID_25_" gradientUnits="userSpaceOnUse" x1="-250.4458" y1="397.4324" x2="-244.5154" y2="391.2582" gradientTransform="matrix(1 0 0 -1 0 796)">
			<stop  offset="0" style="stop-color:#F79421"/>
			<stop  offset="1" style="stop-color:#F6AC1D"/>
		</linearGradient>
		<path id="XMLID_8_" class="st7" d="M-252,399.6l7.5,7.5c0.3,0.3,0.7,0.1,0.7-0.3v-2.7c0-0.8-0.3-1.6-0.9-2.2l-4.8-4.8L-252,399.6z
			"/>
		
			<linearGradient id="XMLID_26_" gradientUnits="userSpaceOnUse" x1="-245.8895" y1="404.7707" x2="-252.7949" y2="398.5152" gradientTransform="matrix(1 0 0 -1 0 796)">
			<stop  offset="0" style="stop-color:#F79421"/>
			<stop  offset="1" style="stop-color:#F6AC1D"/>
		</linearGradient>
		<path id="XMLID_7_" class="st8" d="M-247,393.3v-3.8l-5,5l0,0l-1.5,1.5c-0.5,0.5-0.5,1.4,0,1.9l1.5,1.6l4.1-4.1
			C-247.4,394.9-247,394.1-247,393.3z"/>
	</g>
</g>
<g id="XMLID_8294_">
	<path id="XMLID_8283_" class="st0" d="M-229.8,386.7l16.8,0.1v4.5h-6v6.5h-4.4v-6.6h-6.5C-229.9,391.1-229.8,386.5-229.8,386.7z"/>
	<polygon id="XMLID_8282_" class="st0" points="-223.5,399.5 -218.9,399.5 -219,407.5 -223.6,407.5 	"/>
	
		<ellipse id="XMLID_8281_" transform="matrix(-1 -4.369355e-003 4.369355e-003 -1 -444.2924 792.5897)" class="st9" cx="-221.3" cy="396.8" rx="10.7" ry="2.5"/>
</g>
<g id="XMLID_3_">
</g>
<g id="XMLID_4_">
</g>
<g id="XMLID_16_">
</g>
<g id="XMLID_17_">
</g>
<g id="XMLID_18_">
</g>
<g id="XMLID_19_">
</g>
<g>
	<circle class="st10" cx="-222.1" cy="397.1" r="15.8"/>
	<g>
		
			<rect x="-232.2" y="395.2" transform="matrix(0.7071 -0.7071 0.7071 0.7071 -348.2883 -46.4541)" class="st0" width="3.9" height="3.9"/>
		
			<rect x="-228.9" y="389" transform="matrix(0.7071 -0.7071 0.7071 0.7071 -342.0735 -43.8798)" class="st0" width="9.8" height="3.9"/>
		
			<rect x="-229.9" y="395.1" transform="matrix(0.7071 -0.7071 0.7071 0.7071 -345.8042 -40.7331)" class="st0" width="15.6" height="3.9"/>
		
			<rect x="-226" y="399" transform="matrix(0.7071 -0.7071 0.7071 0.7071 -347.4059 -36.8663)" class="st0" width="15.6" height="3.9"/>
	</g>
</g>
</svg>
